<svg xmlns="http://www.w3.org/2000/svg" viewBox="0 0 900 520" width="900" height="520">
  <defs>
    <linearGradient id="bgGrad" x1="0" y1="0" x2="0" y2="1">
      <stop offset="0" stop-color="#f8fafc"/>
      <stop offset="1" stop-color="#e2e8f0"/>
    </linearGradient>
    <linearGradient id="primaryGrad" x1="0" y1="0" x2="0" y2="1">
      <stop offset="0" stop-color="#4f46e5"/>
      <stop offset="1" stop-color="#4338ca"/>
    </linearGradient>
    <linearGradient id="successGrad" x1="0" y1="0" x2="0" y2="1">
      <stop offset="0" stop-color="#10b981"/>
      <stop offset="1" stop-color="#059669"/>
    </linearGradient>
    <linearGradient id="warnGrad" x1="0" y1="0" x2="0" y2="1">
      <stop offset="0" stop-color="#f59e0b"/>
      <stop offset="1" stop-color="#d97706"/>
    </linearGradient>
    <filter id="shadow" x="-5%" y="-5%" width="110%" height="110%">
      <feDropShadow dx="0" dy="2" stdDeviation="3" flood-color="#000000" flood-opacity="0.12"/>
    </filter>
  </defs>

  <!-- Background -->
  <rect width="900" height="520" rx="12" fill="url(#bgGrad)"/>

  <!-- Title -->
  <text x="450" y="36" text-anchor="middle" font-family="system-ui, -apple-system, sans-serif" font-size="20" font-weight="700" fill="#1e293b">漏洞哨兵 V11.4 架构图</text>

  <!-- User Layer -->
  <rect x="40" y="60" width="820" height="70" rx="10" fill="#ffffff" stroke="#cbd5e1" stroke-width="1.5" filter="url(#shadow)"/>
  <text x="60" y="82" font-family="system-ui, sans-serif" font-size="13" font-weight="600" fill="#64748b">用户层</text>
  <rect x="100" y="92" width="110" height="28" rx="6" fill="#f1f5f9" stroke="#94a3b8" stroke-width="1"/>
  <text x="155" y="110" text-anchor="middle" font-family="system-ui, sans-serif" font-size="12" fill="#475569">浏览器 / 移动端</text>
  <rect x="240" y="92" width="110" height="28" rx="6" fill="#f1f5f9" stroke="#94a3b8" stroke-width="1"/>
  <text x="295" y="110" text-anchor="middle" font-family="system-ui, sans-serif" font-size="12" fill="#475569">API 客户端</text>
  <rect x="380" y="92" width="110" height="28" rx="6" fill="#f1f5f9" stroke="#94a3b8" stroke-width="1"/>
  <text x="435" y="110" text-anchor="middle" font-family="system-ui, sans-serif" font-size="12" fill="#475569">离线 HTML</text>
  <rect x="520" y="92" width="110" height="28" rx="6" fill="#f1f5f9" stroke="#94a3b8" stroke-width="1"/>
  <text x="575" y="110" text-anchor="middle" font-family="system-ui, sans-serif" font-size="12" fill="#475569">GitHub Actions</text>
  <rect x="660" y="92" width="110" height="28" rx="6" fill="#f1f5f9" stroke="#94a3b8" stroke-width="1"/>
  <text x="715" y="110" text-anchor="middle" font-family="system-ui, sans-serif" font-size="12" fill="#475569">Docker / K8s</text>

  <!-- Arrow down -->
  <line x1="450" y1="130" x2="450" y2="150" stroke="#94a3b8" stroke-width="2" marker-end="url(#arrowDown)"/>
  <defs>
    <marker id="arrowDown" markerWidth="10" markerHeight="10" refX="5" refY="5" orient="auto">
      <path d="M0,0 L10,5 L0,10 L3,5 Z" fill="#94a3b8"/>
    </marker>
  </defs>

  <!-- Frontend Layer -->
  <rect x="40" y="155" width="280" height="100" rx="10" fill="#ffffff" stroke="#4f46e5" stroke-width="2" filter="url(#shadow)"/>
  <text x="60" y="177" font-family="system-ui, sans-serif" font-size="13" font-weight="600" fill="#4f46e5">前端层</text>
  <text x="60" y="195" font-family="system-ui, sans-serif" font-size="11" fill="#64748b">单文件 HTML · 零框架依赖 · 离线可用</text>
  <rect x="55" y="205" width="75" height="22" rx="5" fill="#eef2ff" stroke="#c7d2fe" stroke-width="1"/>
  <text x="92" y="220" text-anchor="middle" font-family="system-ui, sans-serif" font-size="10" fill="#4f46e5">暗色主题</text>
  <rect x="145" y="205" width="75" height="22" rx="5" fill="#eef2ff" stroke="#c7d2fe" stroke-width="1"/>
  <text x="182" y="220" text-anchor="middle" font-family="system-ui, sans-serif" font-size="10" fill="#4f46e5">移动端适配</text>
  <rect x="235" y="205" width="75" height="22" rx="5" fill="#eef2ff" stroke="#c7d2fe" stroke-width="1"/>
  <text x="272" y="220" text-anchor="middle" font-family="system-ui, sans-serif" font-size="10" fill="#4f46e5">骨架屏</text>

  <!-- Backend Layer -->
  <rect x="340" y="155" width="520" height="100" rx="10" fill="#ffffff" stroke="#10b981" stroke-width="2" filter="url(#shadow)"/>
  <text x="360" y="177" font-family="system-ui, sans-serif" font-size="13" font-weight="600" fill="#059669">后端层 · FastAPI</text>
  <text x="360" y="195" font-family="system-ui, sans-serif" font-size="11" fill="#64748b">53 API 端点 · JWT 认证 · SQLite · 异步扫描</text>
  <rect x="355" y="205" width="90" height="22" rx="5" fill="#ecfdf5" stroke="#a7f3d0" stroke-width="1"/>
  <text x="400" y="220" text-anchor="middle" font-family="system-ui, sans-serif" font-size="10" fill="#059669">扫描引擎</text>
  <rect x="455" y="205" width="90" height="22" rx="5" fill="#ecfdf5" stroke="#a7f3d0" stroke-width="1"/>
  <text x="500" y="220" text-anchor="middle" font-family="system-ui, sans-serif" font-size="10" fill="#059669">AI 顾问</text>
  <rect x="555" y="205" width="90" height="22" rx="5" fill="#ecfdf5" stroke="#a7f3d0" stroke-width="1"/>
  <text x="600" y="220" text-anchor="middle" font-family="system-ui, sans-serif" font-size="10" fill="#059669">PDF 报告</text>
  <rect x="655" y="205" width="90" height="22" rx="5" fill="#ecfdf5" stroke="#a7f3d0" stroke-width="1"/>
  <text x="700" y="220" text-anchor="middle" font-family="system-ui, sans-serif" font-size="10" fill="#059669">定时任务</text>
  <rect x="755" y="205" width="90" height="22" rx="5" fill="#ecfdf5" stroke="#a7f3d0" stroke-width="1"/>
  <text x="800" y="220" text-anchor="middle" font-family="system-ui, sans-serif" font-size="10" fill="#059669">告警系统</text>

  <!-- Arrow down -->
  <line x1="180" y1="255" x2="180" y2="275" stroke="#94a3b8" stroke-width="2" marker-end="url(#arrowDown)"/>
  <line x1="600" y1="255" x2="600" y2="275" stroke="#94a3b8" stroke-width="2" marker-end="url(#arrowDown)"/>

  <!-- Scan Engine Detail -->
  <rect x="40" y="280" width="400" height="140" rx="10" fill="#ffffff" stroke="#f59e0b" stroke-width="2" filter="url(#shadow)"/>
  <text x="60" y="302" font-family="system-ui, sans-serif" font-size="13" font-weight="600" fill="#d97706">扫描引擎 · 11 维交叉验证</text>
  <text x="60" y="320" font-family="system-ui, sans-serif" font-size="11" fill="#64748b">D1-D11 探针并行 · 置信度评分 · 误报率 &lt; 5%</text>

  <rect x="55" y="330" width="80" height="22" rx="5" fill="#fffbeb" stroke="#fde68a" stroke-width="1"/>
  <text x="95" y="345" text-anchor="middle" font-family="system-ui, sans-serif" font-size="10" fill="#d97706">D1 响应头</text>
  <rect x="145" y="330" width="80" height="22" rx="5" fill="#fffbeb" stroke="#fde68a" stroke-width="1"/>
  <text x="185" y="345" text-anchor="middle" font-family="system-ui, sans-serif" font-size="10" fill="#d97706">D2 SSL/TLS</text>
  <rect x="235" y="330" width="80" height="22" rx="5" fill="#fffbeb" stroke="#fde68a" stroke-width="1"/>
  <text x="275" y="345" text-anchor="middle" font-family="system-ui, sans-serif" font-size="10" fill="#d97706">D3 敏感路径</text>
  <rect x="325" y="330" width="80" height="22" rx="5" fill="#fffbeb" stroke="#fde68a" stroke-width="1"/>
  <text x="365" y="345" text-anchor="middle" font-family="system-ui, sans-serif" font-size="10" fill="#d97706">D4 WAF 检测</text>

  <rect x="55" y="360" width="80" height="22" rx="5" fill="#fffbeb" stroke="#fde68a" stroke-width="1"/>
  <text x="95" y="375" text-anchor="middle" font-family="system-ui, sans-serif" font-size="10" fill="#d97706">D5 CORS</text>
  <rect x="145" y="360" width="80" height="22" rx="5" fill="#fffbeb" stroke="#fde68a" stroke-width="1"/>
  <text x="185" y="375" text-anchor="middle" font-family="system-ui, sans-serif" font-size="10" fill="#d97706">D6 内容泄露</text>
  <rect x="235" y="360" width="80" height="22" rx="5" fill="#fffbeb" stroke="#fde68a" stroke-width="1"/>
  <text x="275" y="375" text-anchor="middle" font-family="system-ui, sans-serif" font-size="10" fill="#d97706">D7/D8 CORS</text>
  <rect x="325" y="360" width="80" height="22" rx="5" fill="#fffbeb" stroke="#fde68a" stroke-width="1"/>
  <text x="365" y="375" text-anchor="middle" font-family="system-ui, sans-serif" font-size="10" fill="#d97706">D9 Cookie</text>

  <rect x="55" y="390" width="80" height="22" rx="5" fill="#fffbeb" stroke="#fde68a" stroke-width="1"/>
  <text x="95" y="405" text-anchor="middle" font-family="system-ui, sans-serif" font-size="10" fill="#d97706">D10 爬虫</text>
  <rect x="145" y="390" width="80" height="22" rx="5" fill="#fffbeb" stroke="#fde68a" stroke-width="1"/>
  <text x="185" y="405" text-anchor="middle" font-family="system-ui, sans-serif" font-size="10" fill="#d97706">D11 SQLi/XSS</text>
  <rect x="235" y="390" width="170" height="22" rx="5" fill="#fef3c7" stroke="#fcd34d" stroke-width="1"/>
  <text x="320" y="405" text-anchor="middle" font-family="system-ui, sans-serif" font-size="10" fill="#b45309">交叉验证 → 置信度评分</text>

  <!-- Data Layer -->
  <rect x="460" y="280" width="400" height="140" rx="10" fill="#ffffff" stroke="#6366f1" stroke-width="2" filter="url(#shadow)"/>
  <text x="480" y="302" font-family="system-ui, sans-serif" font-size="13" font-weight="600" fill="#4f46e5">数据层 · SQLite</text>
  <text x="480" y="320" font-family="system-ui, sans-serif" font-size="11" fill="#64748b">5 张表 · 自动迁移 · 本地持久化</text>

  <rect x="475" y="330" width="85" height="22" rx="5" fill="#eef2ff" stroke="#c7d2fe" stroke-width="1"/>
  <text x="517" y="345" text-anchor="middle" font-family="system-ui, sans-serif" font-size="10" fill="#4f46e5">users</text>
  <rect x="570" y="330" width="85" height="22" rx="5" fill="#eef2ff" stroke="#c7d2fe" stroke-width="1"/>
  <text x="612" y="345" text-anchor="middle" font-family="system-ui, sans-serif" font-size="10" fill="#4f46e5">scans</text>
  <rect x="665" y="330" width="85" height="22" rx="5" fill="#eef2ff" stroke="#c7d2fe" stroke-width="1"/>
  <text x="707" y="345" text-anchor="middle" font-family="system-ui, sans-serif" font-size="10" fill="#4f46e5">targets</text>
  <rect x="760" y="330" width="85" height="22" rx="5" fill="#eef2ff" stroke="#c7d2fe" stroke-width="1"/>
  <text x="802" y="345" text-anchor="middle" font-family="system-ui, sans-serif" font-size="10" fill="#4f46e5">tickets</text>

  <rect x="475" y="360" width="85" height="22" rx="5" fill="#eef2ff" stroke="#c7d2fe" stroke-width="1"/>
  <text x="517" y="375" text-anchor="middle" font-family="system-ui, sans-serif" font-size="10" fill="#4f46e5">alerts</text>
  <rect x="570" y="360" width="170" height="22" rx="5" fill="#eef2ff" stroke="#c7d2fe" stroke-width="1"/>
  <text x="655" y="375" text-anchor="middle" font-family="system-ui, sans-serif" font-size="10" fill="#4f46e5">verifications</text>

  <rect x="475" y="395" width="370" height="18" rx="4" fill="#f8fafc" stroke="#e2e8f0" stroke-width="1"/>
  <text x="660" y="408" text-anchor="middle" font-family="system-ui, sans-serif" font-size="9" fill="#94a3b8">JWT Secret 文件持久化 · 自动数据库迁移</text>

  <!-- Bottom: Security & Deployment -->
  <rect x="40" y="435" width="400" height="65" rx="10" fill="#ffffff" stroke="#ef4444" stroke-width="2" filter="url(#shadow)"/>
  <text x="60" y="457" font-family="system-ui, sans-serif" font-size="13" font-weight="600" fill="#dc2626">安全防护层</text>
  <rect x="55" y="465" width="85" height="22" rx="5" fill="#fef2f2" stroke="#fecaca" stroke-width="1"/>
  <text x="97" y="480" text-anchor="middle" font-family="system-ui, sans-serif" font-size="10" fill="#dc2626">SSRF 防护</text>
  <rect x="150" y="465" width="85" height="22" rx="5" fill="#fef2f2" stroke="#fecaca" stroke-width="1"/>
  <text x="192" y="480" text-anchor="middle" font-family="system-ui, sans-serif" font-size="10" fill="#dc2626">域名验证</text>
  <rect x="245" y="465" width="85" height="22" rx="5" fill="#fef2f2" stroke="#fecaca" stroke-width="1"/>
  <text x="287" y="480" text-anchor="middle" font-family="system-ui, sans-serif" font-size="10" fill="#dc2626">授权确认</text>
  <rect x="340" y="465" width="85" height="22" rx="5" fill="#fef2f2" stroke="#fecaca" stroke-width="1"/>
  <text x="382" y="480" text-anchor="middle" font-family="system-ui, sans-serif" font-size="10" fill="#dc2626">IP 黑名单</text>

  <rect x="460" y="435" width="400" height="65" rx="10" fill="#ffffff" stroke="#0ea5e9" stroke-width="2" filter="url(#shadow)"/>
  <text x="480" y="457" font-family="system-ui, sans-serif" font-size="13" font-weight="600" fill="#0284c7">部署层</text>
  <rect x="475" y="465" width="85" height="22" rx="5" fill="#f0f9ff" stroke="#bae6fd" stroke-width="1"/>
  <text x="517" y="480" text-anchor="middle" font-family="system-ui, sans-serif" font-size="10" fill="#0284c7">Docker</text>
  <rect x="570" y="465" width="85" height="22" rx="5" fill="#f0f9ff" stroke="#bae6fd" stroke-width="1"/>
  <text x="612" y="480" text-anchor="middle" font-family="system-ui, sans-serif" font-size="10" fill="#0284c7">Render</text>
  <rect x="665" y="465" width="85" height="22" rx="5" fill="#f0f9ff" stroke="#bae6fd" stroke-width="1"/>
  <text x="707" y="480" text-anchor="middle" font-family="system-ui, sans-serif" font-size="10" fill="#0284c7">本地启动</text>
  <rect x="760" y="465" width="85" height="22" rx="5" fill="#f0f9ff" stroke="#bae6fd" stroke-width="1"/>
  <text x="802" y="480" text-anchor="middle" font-family="system-ui, sans-serif" font-size="10" fill="#0284c7">离线 HTML</text>
</svg>